<?xml version="1.0" standalone="no"?>
<!DOCTYPE svg PUBLIC "-//W3C//DTD SVG 20010904//EN"
 "http://www.w3.org/TR/2001/REC-SVG-20010904/DTD/svg10.dtd">
<svg version="1.0" xmlns="http://www.w3.org/2000/svg"
 width="1116.000000pt" height="1116.000000pt" viewBox="0 0 1116.000000 1116.000000"
 preserveAspectRatio="xMidYMid meet">

<g transform="translate(0.000000,1116.000000) scale(0.100000,-0.100000)"
fill="#000000" stroke="none">
<path d="M54 11149 c-11 -6 -28 -23 -37 -39 -16 -26 -17 -408 -17 -5530 0
-4741 2 -5505 14 -5529 8 -15 26 -32 41 -39 20 -9 1283 -12 5526 -12 4741 0
5504 2 5528 14 15 8 32 26 39 41 16 36 18 11012 1 11048 -6 13 -23 31 -39 40
-26 16 -414 17 -5532 16 -3680 0 -5510 -4 -5524 -10z m6164 -2918 c85 -44 32
95 973 -2545 611 -1714 879 -2479 879 -2507 0 -46 -22 -94 -49 -109 -13 -6
-211 -10 -568 -10 -525 0 -549 1 -580 20 -17 10 -37 28 -43 40 -6 11 -88 236
-181 498 -230 648 -214 606 -252 626 -29 16 -102 17 -910 14 l-879 -3 -21 -25
c-13 -15 -103 -253 -211 -555 -104 -292 -197 -542 -207 -556 -41 -58 -47 -59
-522 -59 -265 0 -446 4 -462 10 -35 13 -59 71 -52 130 5 49 1744 4899 1780
4965 12 21 37 50 56 62 l34 23 589 0 c560 0 591 -1 626 -19z"/>
<path d="M5477 6972 c-24 -27 -627 -1687 -627 -1727 0 -24 6 -37 19 -45 13 -6
228 -10 630 -10 674 0 641 -3 641 63 1 42 -588 1686 -613 1715 -25 27 -29 27
-50 4z"/>
</g>
</svg>
