<svg width="558" height="558" viewBox="0 0 558 558" fill="none" xmlns="http://www.w3.org/2000/svg">
<rect width="558" height="558" fill="#212121"/>
<path d="M161.8 405C158.3 405 156.55 403.017 156.55 399.05C156.55 397.183 156.783 395.783 157.25 394.85L244.4 152.3C245.333 149.733 246.383 147.983 247.55 147.05C248.95 145.883 250.933 145.3 253.5 145.3H306C308.567 145.3 310.783 146 312.65 147.4C314.517 148.8 315.8 150.667 316.5 153L402.95 395.55C403.417 396.95 403.65 398 403.65 398.7C403.65 400.567 403.183 402.083 402.25 403.25C401.55 404.417 400.383 405 398.75 405H347.3C343.8 405 341.583 403.367 340.65 400.1L322.45 349C321.983 347.6 321.4 346.667 320.7 346.2C320.233 345.5 319.3 345.15 317.9 345.15H232.5C230.167 345.15 228.65 346.317 227.95 348.65L209.4 400.45C208 403.483 205.55 405 202.05 405H161.8ZM303.55 298.6C305.883 298.6 307.05 297.667 307.05 295.8C307.05 294.4 306.933 293.35 306.7 292.65L277.3 210.75C276.6 209.35 275.783 208.65 274.85 208.65C274.15 208.65 273.45 209.467 272.75 211.1L243 292.65C242.533 294.05 242.3 295.1 242.3 295.8C242.3 297.667 243.583 298.6 246.15 298.6H303.55Z" fill="white"/>
</svg>
